<svg width="1000" height="1000" viewBox="0 0 1000 1000" xmlns="http://www.w3.org/2000/svg"><defs/><g opacity="0.6" transform="matrix(0.4071967563839027 0 0 0.4071967563839027 4.62386530020556 6.933873381045188)"><path fill="#89cff3" d="M 576.81692712585 1325.32930807115 C 568.01692712585 1318.52930807115 558.61692712585 1312.22930807115 548.71692712585 1306.42930807115 C 513.41692712585 1286.02930807115 475.21692712585 1275.32930807115 437.01692712585 1273.22930807115 L 437.01692712585 1305.92930807115 L 546.41692712585 1369.12930807115 L 575.81692712585 1349.32930807115 C 584.31692712585 1343.72930807115 584.81692712585 1331.52930807115 576.81692712585 1325.32930807115 Z"/></g><g opacity="0.6" transform="matrix(0.4071967563839027 0 0 0.4071967563839027 4.62386530020556 6.933873381045188)"><path fill="#00a9ff" d="M 688.31692712585 1289.72930807115 C 678.01692712585 1293.92930807115 667.81692712585 1298.92930807115 657.91692712585 1304.62930807115 C 622.61692712585 1325.02930807115 594.21692712585 1352.72930807115 573.31692712585 1384.72930807115 L 601.61692712585 1401.02930807115 L 711.21692712585 1337.82930807115 L 708.81692712585 1302.52930807115 C 708.11692712585 1292.42930807115 697.71692712585 1285.82930807115 688.31692712585 1289.72930807115 Z"/></g><g opacity="0.6" transform="matrix(0.4071967563839027 0 0 0.4071967563839027 4.62386530020556 6.933873381045188)"><path fill="#89cff3" d="M 766.41692712585 1179.62930807115 L 734.61692712585 1164.02930807115 C 725.51692712585 1159.52930807115 714.71692712585 1165.32930807115 713.31692712585 1175.32930807115 C 711.81692712585 1186.32930807115 711.01692712585 1197.62930807115 711.01692712585 1209.02930807115 C 711.01692712585 1249.82930807115 720.81692712585 1288.22930807115 738.11692712585 1322.32930807115 L 766.41692712585 1305.92930807115 L 766.41692712585 1179.62930807115 Z"/></g><g opacity="0.6" transform="matrix(0.4071967563839027 0 0 0.4071967563839027 4.62386530020556 6.933873381045188)"><path fill="#00a9ff" d="M 626.61692712585 1096.52930807115 C 635.41692712585 1103.32930807115 644.81692712585 1109.62930807115 654.71692712585 1115.42930807115 C 690.01692712585 1135.82930807115 728.21692712585 1146.52930807115 766.41692712585 1148.62930807115 L 766.41692712585 1115.92930807115 L 656.91692712585 1052.72930807115 L 627.51692712585 1072.52930807115 C 619.11692712585 1078.12930807115 618.61692712585 1090.32930807115 626.61692712585 1096.52930807115 Z"/></g><g opacity="0.6" transform="matrix(0.4071967563839027 0 0 0.4071967563839027 4.62386530020556 6.933873381045188)"><path fill="#89cff3" d="M 515.11692712585 1132.12930807115 C 525.41692712585 1127.92930807115 535.61692712585 1122.92930807115 545.51692712585 1117.22930807115 C 580.81692712585 1096.82930807115 609.21692712585 1069.12930807115 630.11692712585 1037.12930807115 L 601.81692712585 1020.82930807115 L 492.41692712585 1084.02930807115 L 494.81692712585 1119.32930807115 C 495.41692712585 1129.42930807115 505.81692712585 1136.02930807115 515.11692712585 1132.12930807115 Z"/></g><g opacity="0.6" transform="matrix(0.4071967563839027 0 0 0.4071967563839027 4.62386530020556 6.933873381045188)"><path fill="#00a9ff" d="M 490.21692712585 1246.52930807115 C 491.71692712585 1235.52930807115 492.51692712585 1224.22930807115 492.51692712585 1212.82930807115 C 492.51692712585 1172.02930807115 482.71692712585 1133.62930807115 465.41692712585 1099.52930807115 L 437.11692712585 1115.82930807115 L 437.11692712585 1242.22930807115 L 468.91692712585 1257.82930807115 C 478.01692712585 1262.22930807115 488.81692712585 1256.52930807115 490.21692712585 1246.52930807115 Z"/></g><path fill="#89cff3" transform="matrix(0.4071967563839027 0 0 0.4071967563839027 4.62386530020556 6.933873381045188)" d="M 437.11692712585 1306.02930807115 L 437.11692712585 1273.32930807115 C 413.41692712585 1272.02930807115 389.71692712585 1274.22930807115 366.81692712585 1279.52930807115 C 384.01692712585 1337.92930807115 422.61692712585 1387.22930807115 473.51692712585 1418.22930807115 L 546.51692712585 1369.22930807115 L 437.11692712585 1306.02930807115 Z"/><path fill="#00a9ff" transform="matrix(0.4071967563839027 0 0 0.4071967563839027 4.62386530020556 6.933873381045188)" d="M 601.71692712585 1401.02930807115 L 573.41692712585 1384.72930807115 C 560.81692712585 1404.12930807115 551.01692712585 1425.12930807115 544.21692712585 1446.92930807115 C 561.91692712585 1451.02930807115 580.21692712585 1453.22930807115 599.21692712585 1453.22930807115 C 642.01692712585 1453.22930807115 682.11692712585 1442.12930807115 717.01692712585 1422.72930807115 L 711.21692712585 1337.92930807115 L 601.71692712585 1401.02930807115 Z"/><path fill="#89cff3" transform="matrix(0.4071967563839027 0 0 0.4071967563839027 4.62386530020556 6.933873381045188)" d="M 766.41692712585 1179.62930807115 L 766.41692712585 1306.02930807115 L 738.11692712585 1322.42930807115 C 748.21692712585 1342.32930807115 760.91692712585 1360.62930807115 775.71692712585 1377.02930807115 C 815.31692712585 1334.92930807115 840.01692712585 1278.62930807115 841.41692712585 1216.52930807115 L 766.41692712585 1179.62930807115 Z"/><path fill="#00a9ff" transform="matrix(0.4071967563839027 0 0 0.4071967563839027 4.62386530020556 6.933873381045188)" d="M 766.41692712585 1115.82930807115 L 766.41692712585 1148.52930807115 C 788.51692712585 1149.72930807115 810.51692712585 1147.82930807115 832.01692712585 1143.32930807115 C 815.21692712585 1085.52930807115 777.41692712585 1036.52930807115 727.41692712585 1005.32930807115 L 656.91692712585 1052.72930807115 L 766.41692712585 1115.82930807115 Z"/><path fill="#89cff3" transform="matrix(0.4071967563839027 0 0 0.4071967563839027 4.62386530020556 6.933873381045188)" d="M 601.71692712585 1020.82930807115 L 630.01692712585 1037.12930807115 C 642.41692712585 1018.12930807115 652.01692712585 997.52930807115 658.81692712585 976.02930807115 C 646.31692712585 972.82930807115 633.51692712585 970.62930807115 620.31692712585 969.42930807115 C 613.31692712585 968.82930807115 606.21692712585 968.52930807115 599.11692712585 968.52930807115 C 558.31692712585 968.52930807115 520.01692712585 978.62930807115 486.31692712585 996.42930807115 L 492.31692712585 1083.92930807115 L 601.71692712585 1020.82930807115 Z"/><path fill="#00a9ff" transform="matrix(0.4071967563839027 0 0 0.4071967563839027 4.62386530020556 6.933873381045188)" d="M 437.11692712585 1115.82930807115 L 465.41692712585 1099.52930807115 C 454.71692712585 1078.52930807115 441.21692712585 1059.32930807115 425.31692712585 1042.22930807115 C 384.71692712585 1084.12930807115 359.01692712585 1140.52930807115 357.01692712585 1203.02930807115 L 437.01692712585 1242.22930807115 L 437.01692712585 1115.82930807115 Z"/><path id="text" transform="matrix(1.0442765493083472 0 0 1.0442765493083472 229.1623703529521 77.27997850502041)" d="M 171.04582572062 366.73450686083 C 173.98332572062 366.73450686083 176.85832572062 367.23450686083 179.67082572062 368.23450686083 C 182.48332572062 369.23450686083 185.03020072062 370.70325686083 187.31145072062 372.64075686083 C 189.59270072062 374.57825686083 191.40520072062 376.90638186083 192.74895072062 379.62513186083 C 194.09270072062 382.34388186083 194.76457572062 385.45325686083 194.76457572062 388.95325686083 C 194.76457572062 393.20325686083 193.68645072062 396.96888186083 191.53020072062 400.25013186083 C 189.37395072062 403.53138186083 186.51457572062 406.10950686083 182.95207572062 407.98450686083 C 179.38957572062 409.85950686083 175.51457572062 410.79700686083 171.32707572062 410.79700686083 C 168.51457572062 410.79700686083 165.98332572062 410.51575686083 163.73332572062 409.95325686083 C 161.48332572062 409.39075686083 159.60832572062 408.73450686083 158.10832572062 407.98450686083 L 158.10832572062 429.54700686083 L 145.07707572062 429.54700686083 L 145.07707572062 366.73450686083 L 171.04582572062 366.73450686083 Z M 158.10832572062 378.92200686083 L 158.10832572062 397.48450686083 C 159.48332572062 398.04700686083 161.15520072062 398.53138186083 163.12395072062 398.93763186083 C 165.09270072062 399.34388186083 167.10832572062 399.54700686083 169.17082572062 399.54700686083 C 172.92082572062 399.54700686083 175.90520072062 398.50013186083 178.12395072062 396.40638186083 C 180.34270072062 394.31263186083 181.45207572062 391.82825686083 181.45207572062 388.95325686083 C 181.45207572062 385.64075686083 180.20207572062 383.14075686083 177.70207572062 381.45325686083 C 175.20207572062 379.76575686083 172.26457572062 378.92200686083 168.88957572062 378.92200686083 L 158.10832572062 378.92200686083 Z M 215.76457572062 357.54700686083 C 218.01457572062 357.54700686083 219.95207572062 358.34388186083 221.57707572062 359.93763186083 C 223.20207572062 361.53138186083 224.01457572062 363.42200686083 224.01457572062 365.60950686083 C 224.01457572062 367.73450686083 223.20207572062 369.60950686083 221.57707572062 371.23450686083 C 219.95207572062 372.85950686083 218.01457572062 373.67200686083 215.76457572062 373.67200686083 C 213.51457572062 373.67200686083 211.59270072062 372.85950686083 209.99895072062 371.23450686083 C 208.40520072062 369.60950686083 207.60832572062 367.73450686083 207.60832572062 365.60950686083 C 207.60832572062 363.42200686083 208.40520072062 361.53138186083 209.99895072062 359.93763186083 C 211.59270072062 358.34388186083 213.51457572062 357.54700686083 215.76457572062 357.54700686083 Z M 222.70207572062 382.20325686083 L 222.70207572062 429.54700686083 L 210.79582572062 429.54700686083 L 210.79582572062 392.32825686083 L 203.20207572062 392.32825686083 L 203.20207572062 382.20325686083 L 222.70207572062 382.20325686083 Z M 259.26457572062 380.98450686083 C 262.76457572062 380.98450686083 265.63957572062 381.54700686083 267.88957572062 382.67200686083 C 270.13957572062 383.79700686083 271.92082572062 384.89075686083 273.23332572062 385.95325686083 L 273.23332572062 396.92200686083 C 271.60832572062 395.73450686083 269.78020072062 394.73450686083 267.74895072062 393.92200686083 C 265.71770072062 393.10950686083 263.23332572062 392.70325686083 260.29582572062 392.70325686083 C 257.92082572062 392.70325686083 255.71770072062 393.29700686083 253.68645072062 394.48450686083 C 251.65520072062 395.67200686083 250.04582572062 397.26575686083 248.85832572062 399.26575686083 C 247.67082572062 401.26575686083 247.07707572062 403.54700686083 247.07707572062 406.10950686083 C 247.07707572062 409.98450686083 248.32707572062 413.17200686083 250.82707572062 415.67200686083 C 253.32707572062 418.17200686083 256.48332572062 419.42200686083 260.29582572062 419.42200686083 C 263.23332572062 419.42200686083 265.71770072062 419.03138186083 267.74895072062 418.25013186083 C 269.78020072062 417.46888186083 271.60832572062 416.48450686083 273.23332572062 415.29700686083 L 273.23332572062 426.17200686083 C 271.92082572062 427.29700686083 270.13957572062 428.37513186083 267.88957572062 429.40638186083 C 265.63957572062 430.43763186083 262.76457572062 430.95325686083 259.26457572062 430.95325686083 C 254.45207572062 430.95325686083 250.18645072062 429.81263186083 246.46770072062 427.53138186083 C 242.74895072062 425.25013186083 239.81145072062 422.21888186083 237.65520072062 418.43763186083 C 235.49895072062 414.65638186083 234.42082572062 410.54700686083 234.42082572062 406.10950686083 C 234.42082572062 402.79700686083 235.03020072062 399.64075686083 236.24895072062 396.64075686083 C 237.46770072062 393.64075686083 239.20207572062 390.96888186083 241.45207572062 388.62513186083 C 243.70207572062 386.28138186083 246.34270072062 384.42200686083 249.37395072062 383.04700686083 C 252.40520072062 381.67200686083 255.70207572062 380.98450686083 259.26457572062 380.98450686083 Z M 295.73332572062 362.04700686083 L 295.73332572062 403.29700686083 L 315.04582572062 382.20325686083 L 329.95207572062 382.20325686083 L 309.51457572062 402.73450686083 L 330.98332572062 429.54700686083 L 315.98332572062 429.54700686083 L 301.63957572062 410.70325686083 L 295.73332572062 416.60950686083 L 295.73332572062 429.54700686083 L 283.82707572062 429.54700686083 L 283.82707572062 362.04700686083 L 295.73332572062 362.04700686083 Z M 346.26457572062 382.20325686083 L 359.76457572062 412.39075686083 L 372.88957572062 382.20325686083 L 386.48332572062 382.20325686083 L 352.07707572062 452.04700686083 L 338.57707572062 452.04700686083 L 352.82707572062 426.07825686083 L 332.38957572062 382.20325686083 L 346.26457572062 382.20325686083 Z M 450.42082572062 366.73450686083 C 453.35832572062 366.73450686083 456.23332572062 367.23450686083 459.04582572062 368.23450686083 C 461.85832572062 369.23450686083 464.40520072062 370.70325686083 466.68645072062 372.64075686083 C 468.96770072062 374.57825686083 470.78020072062 376.90638186083 472.12395072062 379.62513186083 C 473.46770072062 382.34388186083 474.13957572062 385.45325686083 474.13957572062 388.95325686083 C 474.13957572062 393.20325686083 473.06145072062 396.96888186083 470.90520072062 400.25013186083 C 468.74895072062 403.53138186083 465.88957572062 406.10950686083 462.32707572062 407.98450686083 C 458.76457572062 409.85950686083 454.88957572062 410.79700686083 450.70207572062 410.79700686083 C 447.88957572062 410.79700686083 445.35832572062 410.51575686083 443.10832572062 409.95325686083 C 440.85832572062 409.39075686083 438.98332572062 408.73450686083 437.48332572062 407.98450686083 L 437.48332572062 429.54700686083 L 424.45207572062 429.54700686083 L 424.45207572062 366.73450686083 L 450.42082572062 366.73450686083 Z M 437.48332572062 378.92200686083 L 437.48332572062 397.48450686083 C 438.85832572062 398.04700686083 440.53020072062 398.53138186083 442.49895072062 398.93763186083 C 444.46770072062 399.34388186083 446.48332572062 399.54700686083 448.54582572062 399.54700686083 C 452.29582572062 399.54700686083 455.28020072062 398.50013186083 457.49895072062 396.40638186083 C 459.71770072062 394.31263186083 460.82707572062 391.82825686083 460.82707572062 388.95325686083 C 460.82707572062 385.64075686083 459.57707572062 383.14075686083 457.07707572062 381.45325686083 C 454.57707572062 379.76575686083 451.63957572062 378.92200686083 448.26457572062 378.92200686083 L 437.48332572062 378.92200686083 Z M 495.13957572062 357.54700686083 C 497.38957572062 357.54700686083 499.32707572062 358.34388186083 500.95207572062 359.93763186083 C 502.57707572062 361.53138186083 503.38957572062 363.42200686083 503.38957572062 365.60950686083 C 503.38957572062 367.73450686083 502.57707572062 369.60950686083 500.95207572062 371.23450686083 C 499.32707572062 372.85950686083 497.38957572062 373.67200686083 495.13957572062 373.67200686083 C 492.88957572062 373.67200686083 490.96770072062 372.85950686083 489.37395072062 371.23450686083 C 487.78020072062 369.60950686083 486.98332572062 367.73450686083 486.98332572062 365.60950686083 C 486.98332572062 363.42200686083 487.78020072062 361.53138186083 489.37395072062 359.93763186083 C 490.96770072062 358.34388186083 492.88957572062 357.54700686083 495.13957572062 357.54700686083 Z M 502.07707572062 382.20325686083 L 502.07707572062 429.54700686083 L 490.17082572062 429.54700686083 L 490.17082572062 392.32825686083 L 482.57707572062 392.32825686083 L 482.57707572062 382.20325686083 L 502.07707572062 382.20325686083 Z M 538.63957572062 380.98450686083 C 542.13957572062 380.98450686083 545.01457572062 381.54700686083 547.26457572062 382.67200686083 C 549.51457572062 383.79700686083 551.29582572062 384.89075686083 552.60832572062 385.95325686083 L 552.60832572062 396.92200686083 C 550.98332572062 395.73450686083 549.15520072062 394.73450686083 547.12395072062 393.92200686083 C 545.09270072062 393.10950686083 542.60832572062 392.70325686083 539.67082572062 392.70325686083 C 537.29582572062 392.70325686083 535.09270072062 393.29700686083 533.06145072062 394.48450686083 C 531.03020072062 395.67200686083 529.42082572062 397.26575686083 528.23332572062 399.26575686083 C 527.04582572062 401.26575686083 526.45207572062 403.54700686083 526.45207572062 406.10950686083 C 526.45207572062 409.98450686083 527.70207572062 413.17200686083 530.20207572062 415.67200686083 C 532.70207572062 418.17200686083 535.85832572062 419.42200686083 539.67082572062 419.42200686083 C 542.60832572062 419.42200686083 545.09270072062 419.03138186083 547.12395072062 418.25013186083 C 549.15520072062 417.46888186083 550.98332572062 416.48450686083 552.60832572062 415.29700686083 L 552.60832572062 426.17200686083 C 551.29582572062 427.29700686083 549.51457572062 428.37513186083 547.26457572062 429.40638186083 C 545.01457572062 430.43763186083 542.13957572062 430.95325686083 538.63957572062 430.95325686083 C 533.82707572062 430.95325686083 529.56145072062 429.81263186083 525.84270072062 427.53138186083 C 522.12395072062 425.25013186083 519.18645072062 422.21888186083 517.03020072062 418.43763186083 C 514.87395072062 414.65638186083 513.79582572062 410.54700686083 513.79582572062 406.10950686083 C 513.79582572062 402.79700686083 514.40520072062 399.64075686083 515.62395072062 396.64075686083 C 516.84270072062 393.64075686083 518.57707572062 390.96888186083 520.82707572062 388.62513186083 C 523.07707572062 386.28138186083 525.71770072062 384.42200686083 528.74895072062 383.04700686083 C 531.78020072062 381.67200686083 535.07707572062 380.98450686083 538.63957572062 380.98450686083 Z M 578.48332572062 380.98450686083 C 581.42082572062 380.98450686083 584.13957572062 381.42200686083 586.63957572062 382.29700686083 C 589.13957572062 383.17200686083 591.07707572062 384.17200686083 592.45207572062 385.29700686083 L 592.45207572062 395.79700686083 C 590.95207572062 394.79700686083 589.12395072062 393.82825686083 586.96770072062 392.89075686083 C 584.81145072062 391.95325686083 582.57707572062 391.48450686083 580.26457572062 391.48450686083 C 578.01457572062 391.48450686083 576.23332572062 391.98450686083 574.92082572062 392.98450686083 C 573.60832572062 393.98450686083 572.95207572062 395.17200686083 572.95207572062 396.54700686083 C 572.95207572062 397.54700686083 573.32707572062 398.46888186083 574.07707572062 399.31263186083 C 574.82707572062 400.15638186083 576.26457572062 400.89075686083 578.38957572062 401.51575686083 L 583.73332572062 403.29700686083 C 590.92082572062 405.42200686083 594.51457572062 409.57825686083 594.51457572062 415.76575686083 C 594.51457572062 418.70325686083 593.68645072062 421.31263186083 592.03020072062 423.59388186083 C 590.37395072062 425.87513186083 588.15520072062 427.67200686083 585.37395072062 428.98450686083 C 582.59270072062 430.29700686083 579.51457572062 430.95325686083 576.13957572062 430.95325686083 C 572.95207572062 430.95325686083 569.85832572062 430.45325686083 566.85832572062 429.45325686083 C 563.85832572062 428.45325686083 561.57707572062 427.35950686083 560.01457572062 426.17200686083 L 560.01457572062 415.76575686083 C 561.20207572062 416.57825686083 562.63957572062 417.35950686083 564.32707572062 418.10950686083 C 566.01457572062 418.85950686083 567.76457572062 419.46888186083 569.57707572062 419.93763186083 C 571.38957572062 420.40638186083 573.04582572062 420.64075686083 574.54582572062 420.64075686083 C 576.92082572062 420.64075686083 578.74895072062 420.21888186083 580.03020072062 419.37513186083 C 581.31145072062 418.53138186083 581.95207572062 417.32825686083 581.95207572062 415.76575686083 C 581.95207572062 414.57825686083 581.42082572062 413.64075686083 580.35832572062 412.95325686083 C 579.29582572062 412.26575686083 577.73332572062 411.57825686083 575.67082572062 410.89075686083 L 569.85832572062 408.82825686083 C 566.23332572062 407.64075686083 563.73332572062 405.95325686083 562.35832572062 403.76575686083 C 560.98332572062 401.57825686083 560.29582572062 398.98450686083 560.29582572062 395.98450686083 C 560.29582572062 392.98450686083 561.06145072062 390.37513186083 562.59270072062 388.15638186083 C 564.12395072062 385.93763186083 566.26457572062 384.18763186083 569.01457572062 382.90638186083 C 571.76457572062 381.62513186083 574.92082572062 380.98450686083 578.48332572062 380.98450686083 Z"/></svg>